<svg width="1070" height="226" viewBox="0 0 1070 226" fill="none" xmlns="http://www.w3.org/2000/svg">
<path d="M59.1349 20.5774L59.1 20.5249L59.0644 20.4729C54.2988 13.5177 47.4552 9 38.76 9C33.4527 9 27.8192 10.3329 23.576 14.576C19.3329 18.8192 18 24.4527 18 29.76V196.08C18 201.387 19.3329 207.021 23.576 211.264C27.8192 215.507 33.4527 216.84 38.76 216.84C44.0673 216.84 49.7009 215.507 53.944 211.264C58.1871 207.021 59.52 201.387 59.52 196.08V95.3545L94.8763 147.379L94.8859 147.393L94.8956 147.407C99.2132 153.708 105.435 158.88 113.8 158.88C122.861 158.88 130.387 154.875 135.504 147.407L135.514 147.393L135.524 147.379L170.6 95.7665V196.08C170.6 201.387 171.933 207.021 176.176 211.264C180.419 215.507 186.053 216.84 191.36 216.84C196.667 216.84 202.301 215.507 206.544 211.264C210.787 207.021 212.12 201.387 212.12 196.08V29.76C212.12 24.8596 211.166 19.5155 207.735 15.2772C204.01 10.6753 198.723 9 193.6 9C184.445 9 176.719 12.8733 171.769 20.6614L115.479 105.333L59.1349 20.5774ZM628.677 19.4821L628.603 19.3867L628.526 19.2933C623.868 13.6125 617.648 9 609.807 9C604.5 9 598.866 10.3329 594.623 14.576C590.38 18.8192 589.047 24.4527 589.047 29.76V196.08C589.047 201.387 590.38 207.021 594.623 211.264C598.866 215.507 604.5 216.84 609.807 216.84C615.114 216.84 620.748 215.507 624.991 211.264C629.234 207.021 630.567 201.387 630.567 196.08V89.6534L721.137 206.358L721.144 206.367L721.15 206.375C725.76 212.285 732.024 216.84 740.007 216.84C745.314 216.84 750.948 215.507 755.191 211.264C759.434 207.021 760.767 201.387 760.767 196.08V29.76C760.767 24.4527 759.434 18.8192 755.191 14.576C750.948 10.3329 745.314 9 740.007 9C734.7 9 729.066 10.3329 724.823 14.576C720.58 18.8191 719.247 24.4527 719.247 29.76V136.187L628.677 19.4821ZM901.428 198.915L901.457 198.944L901.486 198.973C914.098 211.47 932.662 216.84 955.281 216.84H988.881C1011.57 216.84 1030.17 211.48 1042.7 198.944L1042.72 198.929L1042.73 198.915C1055.23 186.303 1060.6 167.739 1060.6 145.12V29.76C1060.6 24.4527 1059.27 18.8192 1055.02 14.576C1050.78 10.3329 1045.15 9 1039.84 9C1034.53 9 1028.9 10.3329 1024.66 14.576C1020.41 18.8192 1019.08 24.4527 1019.08 29.76V145.12C1019.08 154.549 1017.91 161.01 1016.16 165.111L1016.14 165.169L1016.11 165.227C1014.69 168.697 1012.43 171.011 1008.93 172.516C1004.78 174.201 998.292 175.32 988.881 175.32H955.281C945.87 175.32 939.379 174.201 935.233 172.516C931.728 171.008 929.393 168.674 927.885 165.169C926.2 161.022 925.081 154.532 925.081 145.12V29.76C925.081 24.4527 923.748 18.8192 919.505 14.576C915.262 10.3329 909.628 9 904.321 9C899.014 9 893.38 10.3329 889.137 14.576C884.894 18.8192 883.561 24.4527 883.561 29.76V145.12C883.561 167.739 888.931 186.303 901.428 198.915ZM336.336 196.08C336.336 201.387 337.669 207.021 341.912 211.264C346.155 215.507 351.789 216.84 357.096 216.84H457.616C462.923 216.84 468.557 215.507 472.8 211.264C477.043 207.021 478.376 201.387 478.376 196.08C478.376 190.773 477.043 185.139 472.8 180.896C468.557 176.653 462.923 175.32 457.616 175.32H377.856V132.84H424.576C429.883 132.84 435.517 131.507 439.76 127.264C444.003 123.021 445.336 117.387 445.336 112.08C445.336 106.773 444.003 101.139 439.76 96.8961C435.517 92.6529 429.883 91.32 424.576 91.32H377.856V50.52H457.616C462.923 50.52 468.557 49.1871 472.8 44.944C477.043 40.7008 478.376 35.0673 478.376 29.76C478.376 24.4527 477.043 18.8192 472.8 14.576C468.557 10.3329 462.923 9 457.616 9H357.096C351.789 9 346.155 10.3329 341.912 14.576C337.669 18.8192 336.336 24.4527 336.336 29.76V196.08Z" fill="white" stroke="#0E1117" stroke-width="18"/>
</svg>
